name C:\Users\u0101727\Documents\MyRepositories\upper-imu-dc\Results\main_tracking\Case_45\FLX01_linearAccelerations_groundFrame.mot
datacolumns 4
datarows 70
range 2.00600000 2.42000000
endheader 
time	radius_imu_x	radius_imu_y	radius_imu_z	
          2.00600000	         -1.84567615	          9.45441413	          2.27696405	
          2.01200000	         -1.77260511	          9.39772588	          2.23862723	
          2.01800000	         -1.69734713	          9.34175061	          2.19665358	
          2.02400000	         -1.62041193	          9.28716760	          2.15132772	
          2.03000000	         -1.54232210	          9.23460330	          2.10295437	
          2.03600000	         -1.46360181	          9.18462744	          2.05185233	
          2.04200000	         -1.38478355	          9.13774798	          1.99831307	
          2.04800000	         -1.30639530	          9.09441331	          1.94261365	
          2.05400000	         -1.22896542	          9.05501583	          1.88500326	
          2.06000000	         -1.15302324	          9.01989138	          1.82570520	
          2.06600000	         -1.07908928	          8.98932651	          1.76493352	
          2.07200000	         -1.00768663	          8.96355188	          1.70289399	
          2.07800000	         -0.93930989	          8.94274968	          1.63980996	
          2.08400000	         -0.87443767	          8.92704415	          1.57592577	
          2.09000000	         -0.81352117	          8.91650093	          1.51152651	
          2.09600000	         -0.75692589	          8.91110852	          1.44691982	
          2.10200000	         -0.70495750	          8.91078656	          1.38247954	
          2.10800000	         -0.65782363	          8.91536441	          1.31859458	
          2.11400000	         -0.61561060	          8.92459097	          1.25568848	
          2.12000000	         -0.57831300	          8.93814181	          1.19421115	
          2.12600000	         -0.54578762	          8.95561647	          1.13460099	
          2.13200000	         -0.51783837	          8.97657097	          1.07732446	
          2.13800000	         -0.49417805	          9.00052021	          1.02281536	
          2.14400000	         -0.47448840	          9.02696434	          0.97148538	
          2.15000000	         -0.45843096	          9.05539917	          0.92369501	
          2.15600000	         -0.44565410	          9.08533521	          0.87974642	
          2.16200000	         -0.43581898	          9.11629004	          0.83984310	
          2.16800000	         -0.42858420	          9.14780769	          0.80409887	
          2.17400000	         -0.42361206	          9.17945217	          0.77251660	
          2.18000000	         -0.42055756	          9.21080706	          0.74498475	
          2.18600000	         -0.41907283	          9.24148553	          0.72129563	
          2.19200000	         -0.41878847	          9.27111388	          0.70112946	
          2.19800000	         -0.41933340	          9.29935182	          0.68409779	
          2.20400000	         -0.42033687	          9.32589015	          0.66975553	
          2.21000000	         -0.42144514	          9.35045724	          0.65762374	
          2.21600000	         -0.42234665	          9.37283255	          0.64722982	
          2.22200000	         -0.42278354	          9.39284014	          0.63811024	
          2.22800000	         -0.42257026	          9.41035970	          0.62985860	
          2.23400000	         -0.42159411	          9.42531498	          0.62213459	
          2.24000000	         -0.41980892	          9.43766852	          0.61468520	
          2.24600000	         -0.41722583	          9.44740602	          0.60735723	
          2.25200000	         -0.41388275	          9.45453097	          0.60010149	
          2.25800000	         -0.40982963	          9.45904399	          0.59296270	
          2.26400000	         -0.40509785	          9.46093686	          0.58606235	
          2.27000000	         -0.39968018	          9.46019359	          0.57958388	
          2.27600000	         -0.39352637	          9.45677548	          0.57372905	
          2.28200000	         -0.38651940	          9.45066044	          0.56872422	
          2.28800000	         -0.37849777	          9.44182405	          0.56476240	
          2.29400000	         -0.36925727	          9.43027029	          0.56199636	
          2.30000000	         -0.35856378	          9.41604537	          0.56051965	
          2.30600000	         -0.34617941	          9.39923865	          0.56034066	
          2.31200000	         -0.33187246	          9.38001310	          0.56139616	
          2.31800000	         -0.31544875	          9.35859046	          0.56353042	
          2.32400000	         -0.29676884	          9.33526483	          0.56651470	
          2.33000000	         -0.27576774	          9.31039124	          0.57004998	
          2.33600000	         -0.25247282	          9.28439025	          0.57380020	
          2.34200000	         -0.22700946	          9.25771604	          0.57739081	
          2.34800000	         -0.19960133	          9.23086070	          0.58045502	
          2.35400000	         -0.17055875	          9.20432525	          0.58264166	
          2.36000000	         -0.14026403	          9.17860241	          0.58362997	
          2.36600000	         -0.10915417	          9.15417393	          0.58315066	
          2.37200000	         -0.07769743	          9.13147176	          0.58096199	
          2.37800000	         -0.04637231	          9.11089172	          0.57686401	
          2.38400000	         -0.01564241	          9.09277259	          0.57067357	
          2.39000000	          0.01406124	          9.07739314	          0.56221882	
          2.39600000	          0.04236200	          9.06497245	          0.55133107	
          2.40200000	          0.06894180	          9.05565791	          0.53784518	
          2.40800000	          0.09355340	          9.04953616	          0.52160269	
          2.41400000	          0.11601618	          9.04663143	          0.50246293	
          2.42000000	          0.13621078	          9.04691057	          0.48031932	
